<?xml version="1.0" encoding="utf-8" standalone="no"?>
<!DOCTYPE svg PUBLIC "-//W3C//DTD SVG 1.1//EN"
  "http://www.w3.org/Graphics/SVG/1.1/DTD/svg11.dtd">
<svg xmlns:xlink="http://www.w3.org/1999/xlink" width="540pt" height="302.4pt" viewBox="0 0 540 302.4" xmlns="http://www.w3.org/2000/svg" version="1.1">
 <metadata>
  <rdf:RDF xmlns:dc="http://purl.org/dc/elements/1.1/" xmlns:cc="http://creativecommons.org/ns#" xmlns:rdf="http://www.w3.org/1999/02/22-rdf-syntax-ns#">
   <cc:Work>
    <dc:type rdf:resource="http://purl.org/dc/dcmitype/StillImage"/>
    <dc:date>2026-10-10T22:11:18.313819</dc:date>
    <dc:format>image/svg+xml</dc:format>
    <dc:creator>
     <cc:Agent>
      <dc:title>Matplotlib v3.11.2, https://matplotlib.org/</dc:title>
     </cc:Agent>
    </dc:creator>
   </cc:Work>
  </rdf:RDF>
 </metadata>
 <defs>
  <style type="text/css">*{stroke-linejoin: round; stroke-linecap: butt}</style>
 </defs>
 <g id="figure_1">
  <g id="patch_1">
   <path d="M 0 302.4 
L 540 302.4 
L 540 0 
L 0 0 
z
" style="fill: #fcfcfb"/>
  </g>
  <g id="axes_1">
   <g id="patch_2">
    <path d="M 64.522344 260.277656 
L 514.142727 260.277656 
L 514.142727 26.16 
L 64.522344 26.16 
z
" style="fill: #fcfcfb"/>
   </g>
   <g id="matplotlib.axis_1">
    <g id="xtick_1">
     <g id="line2d_1">
      <path d="M 84.959634 260.277656 
L 84.959634 26.16 
" clip-path="url(#pe50ed3600d)" style="fill: none; stroke: #e4e3df; stroke-width: 0.8; stroke-linecap: square"/>
     </g>
     <g id="line2d_2">
      <defs>
       <path id="m8f05c22a3b" d="M 0 0 
L 0 3.5 
" style="stroke: #52514e; stroke-width: 0.8"/>
      </defs>
      <g>
       <use xlink:href="#m8f05c22a3b" x="84.959634" y="260.277656" style="fill: #52514e; stroke: #52514e; stroke-width: 0.8"/>
      </g>
     </g>
     <g id="text_1">
      <!-- 1 -->
      <g style="fill: #52514e" transform="translate(81.778384 274.875313) scale(0.1 -0.1)">
       <defs>
        <path id="DejaVuSans-14" d="M 794 531 
L 1825 531 
L 1825 4091 
L 703 3866 
L 703 4441 
L 1819 4666 
L 2450 4666 
L 2450 531 
L 3481 531 
L 3481 0 
L 794 0 
L 794 531 
z
" transform="scale(0.015625)"/>
       </defs>
       <use xlink:href="#DejaVuSans-14"/>
      </g>
     </g>
    </g>
    <g id="xtick_2">
     <g id="line2d_3">
      <path d="M 260.136407 260.277656 
L 260.136407 26.16 
" clip-path="url(#pe50ed3600d)" style="fill: none; stroke: #e4e3df; stroke-width: 0.8; stroke-linecap: square"/>
     </g>
     <g id="line2d_4">
      <g>
       <use xlink:href="#m8f05c22a3b" x="260.136407" y="260.277656" style="fill: #52514e; stroke: #52514e; stroke-width: 0.8"/>
      </g>
     </g>
     <g id="text_2">
      <!-- 8 -->
      <g style="fill: #52514e" transform="translate(256.955157 274.875313) scale(0.1 -0.1)">
       <defs>
        <path id="DejaVuSans-1b" d="M 2034 2216 
Q 1584 2216 1326 1975 
Q 1069 1734 1069 1313 
Q 1069 891 1326 650 
Q 1584 409 2034 409 
Q 2484 409 2743 651 
Q 3003 894 3003 1313 
Q 3003 1734 2745 1975 
Q 2488 2216 2034 2216 
z
M 1403 2484 
Q 997 2584 770 2862 
Q 544 3141 544 3541 
Q 544 4100 942 4425 
Q 1341 4750 2034 4750 
Q 2731 4750 3128 4425 
Q 3525 4100 3525 3541 
Q 3525 3141 3298 2862 
Q 3072 2584 2669 2484 
Q 3125 2378 3379 2068 
Q 3634 1759 3634 1313 
Q 3634 634 3220 271 
Q 2806 -91 2034 -91 
Q 1263 -91 848 271 
Q 434 634 434 1313 
Q 434 1759 690 2068 
Q 947 2378 1403 2484 
z
M 1172 3481 
Q 1172 3119 1398 2916 
Q 1625 2713 2034 2713 
Q 2441 2713 2670 2916 
Q 2900 3119 2900 3481 
Q 2900 3844 2670 4047 
Q 2441 4250 2034 4250 
Q 1625 4250 1398 4047 
Q 1172 3844 1172 3481 
z
" transform="scale(0.015625)"/>
       </defs>
       <use xlink:href="#DejaVuSans-1b"/>
      </g>
     </g>
    </g>
    <g id="xtick_3">
     <g id="line2d_5">
      <path d="M 376.920922 260.277656 
L 376.920922 26.16 
" clip-path="url(#pe50ed3600d)" style="fill: none; stroke: #e4e3df; stroke-width: 0.8; stroke-linecap: square"/>
     </g>
     <g id="line2d_6">
      <g>
       <use xlink:href="#m8f05c22a3b" x="376.920922" y="260.277656" style="fill: #52514e; stroke: #52514e; stroke-width: 0.8"/>
      </g>
     </g>
     <g id="text_3">
      <!-- 32 -->
      <g style="fill: #52514e" transform="translate(370.558422 274.875313) scale(0.1 -0.1)">
       <defs>
        <path id="DejaVuSans-16" d="M 2597 2516 
Q 3050 2419 3304 2112 
Q 3559 1806 3559 1356 
Q 3559 666 3084 287 
Q 2609 -91 1734 -91 
Q 1441 -91 1130 -33 
Q 819 25 488 141 
L 488 750 
Q 750 597 1062 519 
Q 1375 441 1716 441 
Q 2309 441 2620 675 
Q 2931 909 2931 1356 
Q 2931 1769 2642 2001 
Q 2353 2234 1838 2234 
L 1294 2234 
L 1294 2753 
L 1863 2753 
Q 2328 2753 2575 2939 
Q 2822 3125 2822 3475 
Q 2822 3834 2567 4026 
Q 2313 4219 1838 4219 
Q 1578 4219 1281 4162 
Q 984 4106 628 3988 
L 628 4550 
Q 988 4650 1302 4700 
Q 1616 4750 1894 4750 
Q 2613 4750 3031 4423 
Q 3450 4097 3450 3541 
Q 3450 3153 3228 2886 
Q 3006 2619 2597 2516 
z
" transform="scale(0.015625)"/>
        <path id="DejaVuSans-15" d="M 1228 531 
L 3431 531 
L 3431 0 
L 469 0 
L 469 531 
Q 828 903 1448 1529 
Q 2069 2156 2228 2338 
Q 2531 2678 2651 2914 
Q 2772 3150 2772 3378 
Q 2772 3750 2511 3984 
Q 2250 4219 1831 4219 
Q 1534 4219 1204 4116 
Q 875 4013 500 3803 
L 500 4441 
Q 881 4594 1212 4672 
Q 1544 4750 1819 4750 
Q 2544 4750 2975 4387 
Q 3406 4025 3406 3419 
Q 3406 3131 3298 2873 
Q 3191 2616 2906 2266 
Q 2828 2175 2409 1742 
Q 1991 1309 1228 531 
z
" transform="scale(0.015625)"/>
       </defs>
       <use xlink:href="#DejaVuSans-16"/>
       <use xlink:href="#DejaVuSans-15" transform="translate(63.625 0)"/>
      </g>
     </g>
    </g>
    <g id="xtick_4">
     <g id="line2d_7">
      <path d="M 493.705437 260.277656 
L 493.705437 26.16 
" clip-path="url(#pe50ed3600d)" style="fill: none; stroke: #e4e3df; stroke-width: 0.8; stroke-linecap: square"/>
     </g>
     <g id="line2d_8">
      <g>
       <use xlink:href="#m8f05c22a3b" x="493.705437" y="260.277656" style="fill: #52514e; stroke: #52514e; stroke-width: 0.8"/>
      </g>
     </g>
     <g id="text_4">
      <!-- 128 -->
      <g style="fill: #52514e" transform="translate(484.161687 274.875313) scale(0.1 -0.1)">
       <use xlink:href="#DejaVuSans-14"/>
       <use xlink:href="#DejaVuSans-15" transform="translate(63.625 0)"/>
       <use xlink:href="#DejaVuSans-1b" transform="translate(127.25 0)"/>
      </g>
     </g>
    </g>
    <g id="xtick_5">
     <g id="line2d_9">
      <defs>
       <path id="m0834ac7934" d="M 0 0 
L 0 2 
" style="stroke: #52514e; stroke-width: 0.6"/>
      </defs>
      <g>
       <use xlink:href="#m0834ac7934" x="66.161526" y="260.277656" style="fill: #52514e; stroke: #52514e; stroke-width: 0.6"/>
      </g>
     </g>
    </g>
    <g id="xtick_6">
     <g id="line2d_10">
      <g>
       <use xlink:href="#m0834ac7934" x="76.08383" y="260.277656" style="fill: #52514e; stroke: #52514e; stroke-width: 0.6"/>
      </g>
     </g>
    </g>
    <g id="xtick_7">
     <g id="line2d_11">
      <g>
       <use xlink:href="#m0834ac7934" x="143.351892" y="260.277656" style="fill: #52514e; stroke: #52514e; stroke-width: 0.6"/>
      </g>
     </g>
    </g>
    <g id="xtick_8">
     <g id="line2d_12">
      <g>
       <use xlink:href="#m0834ac7934" x="177.509173" y="260.277656" style="fill: #52514e; stroke: #52514e; stroke-width: 0.6"/>
      </g>
     </g>
    </g>
    <g id="xtick_9">
     <g id="line2d_13">
      <g>
       <use xlink:href="#m0834ac7934" x="201.744149" y="260.277656" style="fill: #52514e; stroke: #52514e; stroke-width: 0.6"/>
      </g>
     </g>
    </g>
    <g id="xtick_10">
     <g id="line2d_14">
      <g>
       <use xlink:href="#m0834ac7934" x="220.542257" y="260.277656" style="fill: #52514e; stroke: #52514e; stroke-width: 0.6"/>
      </g>
     </g>
    </g>
    <g id="xtick_11">
     <g id="line2d_15">
      <g>
       <use xlink:href="#m0834ac7934" x="235.90143" y="260.277656" style="fill: #52514e; stroke: #52514e; stroke-width: 0.6"/>
      </g>
     </g>
    </g>
    <g id="xtick_12">
     <g id="line2d_16">
      <g>
       <use xlink:href="#m0834ac7934" x="248.887426" y="260.277656" style="fill: #52514e; stroke: #52514e; stroke-width: 0.6"/>
      </g>
     </g>
    </g>
    <g id="xtick_13">
     <g id="line2d_17">
      <g>
       <use xlink:href="#m0834ac7934" x="270.058711" y="260.277656" style="fill: #52514e; stroke: #52514e; stroke-width: 0.6"/>
      </g>
     </g>
    </g>
    <g id="xtick_14">
     <g id="line2d_18">
      <g>
       <use xlink:href="#m0834ac7934" x="337.326773" y="260.277656" style="fill: #52514e; stroke: #52514e; stroke-width: 0.6"/>
      </g>
     </g>
    </g>
    <g id="xtick_15">
     <g id="line2d_19">
      <g>
       <use xlink:href="#m0834ac7934" x="371.484054" y="260.277656" style="fill: #52514e; stroke: #52514e; stroke-width: 0.6"/>
      </g>
     </g>
    </g>
    <g id="xtick_16">
     <g id="line2d_20">
      <g>
       <use xlink:href="#m0834ac7934" x="395.71903" y="260.277656" style="fill: #52514e; stroke: #52514e; stroke-width: 0.6"/>
      </g>
     </g>
    </g>
    <g id="xtick_17">
     <g id="line2d_21">
      <g>
       <use xlink:href="#m0834ac7934" x="414.517138" y="260.277656" style="fill: #52514e; stroke: #52514e; stroke-width: 0.6"/>
      </g>
     </g>
    </g>
    <g id="xtick_18">
     <g id="line2d_22">
      <g>
       <use xlink:href="#m0834ac7934" x="429.876311" y="260.277656" style="fill: #52514e; stroke: #52514e; stroke-width: 0.6"/>
      </g>
     </g>
    </g>
    <g id="xtick_19">
     <g id="line2d_23">
      <g>
       <use xlink:href="#m0834ac7934" x="442.862307" y="260.277656" style="fill: #52514e; stroke: #52514e; stroke-width: 0.6"/>
      </g>
     </g>
    </g>
    <g id="xtick_20">
     <g id="line2d_24">
      <g>
       <use xlink:href="#m0834ac7934" x="454.111288" y="260.277656" style="fill: #52514e; stroke: #52514e; stroke-width: 0.6"/>
      </g>
     </g>
    </g>
    <g id="xtick_21">
     <g id="line2d_25">
      <g>
       <use xlink:href="#m0834ac7934" x="464.033592" y="260.277656" style="fill: #52514e; stroke: #52514e; stroke-width: 0.6"/>
      </g>
     </g>
    </g>
    <g id="text_5">
     <!-- concurrent clients -->
     <g style="fill: #52514e" transform="translate(244.391911 288.876094) scale(0.1 -0.1)">
      <defs>
       <path id="DejaVuSans-46" d="M 3122 3366 
L 3122 2828 
Q 2878 2963 2633 3030 
Q 2388 3097 2138 3097 
Q 1578 3097 1268 2742 
Q 959 2388 959 1747 
Q 959 1106 1268 751 
Q 1578 397 2138 397 
Q 2388 397 2633 464 
Q 2878 531 3122 666 
L 3122 134 
Q 2881 22 2623 -34 
Q 2366 -91 2075 -91 
Q 1284 -91 818 406 
Q 353 903 353 1747 
Q 353 2603 823 3093 
Q 1294 3584 2113 3584 
Q 2378 3584 2631 3529 
Q 2884 3475 3122 3366 
z
" transform="scale(0.015625)"/>
       <path id="DejaVuSans-52" d="M 1959 3097 
Q 1497 3097 1228 2736 
Q 959 2375 959 1747 
Q 959 1119 1226 758 
Q 1494 397 1959 397 
Q 2419 397 2687 759 
Q 2956 1122 2956 1747 
Q 2956 2369 2687 2733 
Q 2419 3097 1959 3097 
z
M 1959 3584 
Q 2709 3584 3137 3096 
Q 3566 2609 3566 1747 
Q 3566 888 3137 398 
Q 2709 -91 1959 -91 
Q 1206 -91 779 398 
Q 353 888 353 1747 
Q 353 2609 779 3096 
Q 1206 3584 1959 3584 
z
" transform="scale(0.015625)"/>
       <path id="DejaVuSans-51" d="M 3513 2113 
L 3513 0 
L 2938 0 
L 2938 2094 
Q 2938 2591 2744 2837 
Q 2550 3084 2163 3084 
Q 1697 3084 1428 2787 
Q 1159 2491 1159 1978 
L 1159 0 
L 581 0 
L 581 3500 
L 1159 3500 
L 1159 2956 
Q 1366 3272 1645 3428 
Q 1925 3584 2291 3584 
Q 2894 3584 3203 3211 
Q 3513 2838 3513 2113 
z
" transform="scale(0.015625)"/>
       <path id="DejaVuSans-58" d="M 544 1381 
L 544 3500 
L 1119 3500 
L 1119 1403 
Q 1119 906 1312 657 
Q 1506 409 1894 409 
Q 2359 409 2629 706 
Q 2900 1003 2900 1516 
L 2900 3500 
L 3475 3500 
L 3475 0 
L 2900 0 
L 2900 538 
Q 2691 219 2414 64 
Q 2138 -91 1772 -91 
Q 1169 -91 856 284 
Q 544 659 544 1381 
z
M 1991 3584 
L 1991 3584 
z
" transform="scale(0.015625)"/>
       <path id="DejaVuSans-55" d="M 2631 2963 
Q 2534 3019 2420 3045 
Q 2306 3072 2169 3072 
Q 1681 3072 1420 2755 
Q 1159 2438 1159 1844 
L 1159 0 
L 581 0 
L 581 3500 
L 1159 3500 
L 1159 2956 
Q 1341 3275 1631 3429 
Q 1922 3584 2338 3584 
Q 2397 3584 2469 3576 
Q 2541 3569 2628 3553 
L 2631 2963 
z
" transform="scale(0.015625)"/>
       <path id="DejaVuSans-48" d="M 3597 1894 
L 3597 1613 
L 953 1613 
Q 991 1019 1311 708 
Q 1631 397 2203 397 
Q 2534 397 2845 478 
Q 3156 559 3463 722 
L 3463 178 
Q 3153 47 2828 -22 
Q 2503 -91 2169 -91 
Q 1331 -91 842 396 
Q 353 884 353 1716 
Q 353 2575 817 3079 
Q 1281 3584 2069 3584 
Q 2775 3584 3186 3129 
Q 3597 2675 3597 1894 
z
M 3022 2063 
Q 3016 2534 2758 2815 
Q 2500 3097 2075 3097 
Q 1594 3097 1305 2825 
Q 1016 2553 972 2059 
L 3022 2063 
z
" transform="scale(0.015625)"/>
       <path id="DejaVuSans-57" d="M 1172 4494 
L 1172 3500 
L 2356 3500 
L 2356 3053 
L 1172 3053 
L 1172 1153 
Q 1172 725 1289 603 
Q 1406 481 1766 481 
L 2356 481 
L 2356 0 
L 1766 0 
Q 1100 0 847 248 
Q 594 497 594 1153 
L 594 3053 
L 172 3053 
L 172 3500 
L 594 3500 
L 594 4494 
L 1172 4494 
z
" transform="scale(0.015625)"/>
       <path id="DejaVuSans-3" transform="scale(0.015625)"/>
       <path id="DejaVuSans-4f" d="M 603 4863 
L 1178 4863 
L 1178 0 
L 603 0 
L 603 4863 
z
" transform="scale(0.015625)"/>
       <path id="DejaVuSans-4c" d="M 603 3500 
L 1178 3500 
L 1178 0 
L 603 0 
L 603 3500 
z
M 603 4863 
L 1178 4863 
L 1178 4134 
L 603 4134 
L 603 4863 
z
" transform="scale(0.015625)"/>
       <path id="DejaVuSans-56" d="M 2834 3397 
L 2834 2853 
Q 2591 2978 2328 3040 
Q 2066 3103 1784 3103 
Q 1356 3103 1142 2972 
Q 928 2841 928 2578 
Q 928 2378 1081 2264 
Q 1234 2150 1697 2047 
L 1894 2003 
Q 2506 1872 2764 1633 
Q 3022 1394 3022 966 
Q 3022 478 2636 193 
Q 2250 -91 1575 -91 
Q 1294 -91 989 -36 
Q 684 19 347 128 
L 347 722 
Q 666 556 975 473 
Q 1284 391 1588 391 
Q 1994 391 2212 530 
Q 2431 669 2431 922 
Q 2431 1156 2273 1281 
Q 2116 1406 1581 1522 
L 1381 1569 
Q 847 1681 609 1914 
Q 372 2147 372 2553 
Q 372 3047 722 3315 
Q 1072 3584 1716 3584 
Q 2034 3584 2315 3537 
Q 2597 3491 2834 3397 
z
" transform="scale(0.015625)"/>
      </defs>
      <use xlink:href="#DejaVuSans-46"/>
      <use xlink:href="#DejaVuSans-52" transform="translate(54.984375 0)"/>
      <use xlink:href="#DejaVuSans-51" transform="translate(116.171875 0)"/>
      <use xlink:href="#DejaVuSans-46" transform="translate(179.546875 0)"/>
      <use xlink:href="#DejaVuSans-58" transform="translate(234.53125 0)"/>
      <use xlink:href="#DejaVuSans-55" transform="translate(297.90625 0)"/>
      <use xlink:href="#DejaVuSans-55" transform="translate(337.265625 0)"/>
      <use xlink:href="#DejaVuSans-48" transform="translate(376.171875 0)"/>
      <use xlink:href="#DejaVuSans-51" transform="translate(437.703125 0)"/>
      <use xlink:href="#DejaVuSans-57" transform="translate(501.078125 0)"/>
      <use xlink:href="#DejaVuSans-3" transform="translate(540.28125 0)"/>
      <use xlink:href="#DejaVuSans-46" transform="translate(572.0625 0)"/>
      <use xlink:href="#DejaVuSans-4f" transform="translate(627.046875 0)"/>
      <use xlink:href="#DejaVuSans-4c" transform="translate(654.828125 0)"/>
      <use xlink:href="#DejaVuSans-48" transform="translate(682.609375 0)"/>
      <use xlink:href="#DejaVuSans-51" transform="translate(744.140625 0)"/>
      <use xlink:href="#DejaVuSans-57" transform="translate(807.515625 0)"/>
      <use xlink:href="#DejaVuSans-56" transform="translate(846.71875 0)"/>
     </g>
    </g>
   </g>
   <g id="matplotlib.axis_2">
    <g id="ytick_1">
     <g id="line2d_26">
      <path d="M 64.522344 260.277656 
L 514.142727 260.277656 
" clip-path="url(#pe50ed3600d)" style="fill: none; stroke: #e4e3df; stroke-width: 0.8; stroke-linecap: square"/>
     </g>
     <g id="line2d_27">
      <defs>
       <path id="m5ecc896e8d" d="M 0 0 
L -3.5 0 
" style="stroke: #52514e; stroke-width: 0.8"/>
      </defs>
      <g>
       <use xlink:href="#m5ecc896e8d" x="64.522344" y="260.277656" style="fill: #52514e; stroke: #52514e; stroke-width: 0.8"/>
      </g>
     </g>
     <g id="text_6">
      <!-- 0 -->
      <g style="fill: #52514e" transform="translate(51.159844 264.076484) scale(0.1 -0.1)">
       <defs>
        <path id="DejaVuSans-13" d="M 2034 4250 
Q 1547 4250 1301 3770 
Q 1056 3291 1056 2328 
Q 1056 1369 1301 889 
Q 1547 409 2034 409 
Q 2525 409 2770 889 
Q 3016 1369 3016 2328 
Q 3016 3291 2770 3770 
Q 2525 4250 2034 4250 
z
M 2034 4750 
Q 2819 4750 3233 4129 
Q 3647 3509 3647 2328 
Q 3647 1150 3233 529 
Q 2819 -91 2034 -91 
Q 1250 -91 836 529 
Q 422 1150 422 2328 
Q 422 3509 836 4129 
Q 1250 4750 2034 4750 
z
" transform="scale(0.015625)"/>
       </defs>
       <use xlink:href="#DejaVuSans-13"/>
      </g>
     </g>
    </g>
    <g id="ytick_2">
     <g id="line2d_28">
      <path d="M 64.522344 223.887584 
L 514.142727 223.887584 
" clip-path="url(#pe50ed3600d)" style="fill: none; stroke: #e4e3df; stroke-width: 0.8; stroke-linecap: square"/>
     </g>
     <g id="line2d_29">
      <g>
       <use xlink:href="#m5ecc896e8d" x="64.522344" y="223.887584" style="fill: #52514e; stroke: #52514e; stroke-width: 0.8"/>
      </g>
     </g>
     <g id="text_7">
      <!-- 2000 -->
      <g style="fill: #52514e" transform="translate(32.072344 227.686413) scale(0.1 -0.1)">
       <use xlink:href="#DejaVuSans-15"/>
       <use xlink:href="#DejaVuSans-13" transform="translate(63.625 0)"/>
       <use xlink:href="#DejaVuSans-13" transform="translate(127.25 0)"/>
       <use xlink:href="#DejaVuSans-13" transform="translate(190.875 0)"/>
      </g>
     </g>
    </g>
    <g id="ytick_3">
     <g id="line2d_30">
      <path d="M 64.522344 187.497513 
L 514.142727 187.497513 
" clip-path="url(#pe50ed3600d)" style="fill: none; stroke: #e4e3df; stroke-width: 0.8; stroke-linecap: square"/>
     </g>
     <g id="line2d_31">
      <g>
       <use xlink:href="#m5ecc896e8d" x="64.522344" y="187.497513" style="fill: #52514e; stroke: #52514e; stroke-width: 0.8"/>
      </g>
     </g>
     <g id="text_8">
      <!-- 4000 -->
      <g style="fill: #52514e" transform="translate(32.072344 191.296341) scale(0.1 -0.1)">
       <defs>
        <path id="DejaVuSans-17" d="M 2419 4116 
L 825 1625 
L 2419 1625 
L 2419 4116 
z
M 2253 4666 
L 3047 4666 
L 3047 1625 
L 3713 1625 
L 3713 1100 
L 3047 1100 
L 3047 0 
L 2419 0 
L 2419 1100 
L 313 1100 
L 313 1709 
L 2253 4666 
z
" transform="scale(0.015625)"/>
       </defs>
       <use xlink:href="#DejaVuSans-17"/>
       <use xlink:href="#DejaVuSans-13" transform="translate(63.625 0)"/>
       <use xlink:href="#DejaVuSans-13" transform="translate(127.25 0)"/>
       <use xlink:href="#DejaVuSans-13" transform="translate(190.875 0)"/>
      </g>
     </g>
    </g>
    <g id="ytick_4">
     <g id="line2d_32">
      <path d="M 64.522344 151.107441 
L 514.142727 151.107441 
" clip-path="url(#pe50ed3600d)" style="fill: none; stroke: #e4e3df; stroke-width: 0.8; stroke-linecap: square"/>
     </g>
     <g id="line2d_33">
      <g>
       <use xlink:href="#m5ecc896e8d" x="64.522344" y="151.107441" style="fill: #52514e; stroke: #52514e; stroke-width: 0.8"/>
      </g>
     </g>
     <g id="text_9">
      <!-- 6000 -->
      <g style="fill: #52514e" transform="translate(32.072344 154.906269) scale(0.1 -0.1)">
       <defs>
        <path id="DejaVuSans-19" d="M 2113 2584 
Q 1688 2584 1439 2293 
Q 1191 2003 1191 1497 
Q 1191 994 1439 701 
Q 1688 409 2113 409 
Q 2538 409 2786 701 
Q 3034 994 3034 1497 
Q 3034 2003 2786 2293 
Q 2538 2584 2113 2584 
z
M 3366 4563 
L 3366 3988 
Q 3128 4100 2886 4159 
Q 2644 4219 2406 4219 
Q 1781 4219 1451 3797 
Q 1122 3375 1075 2522 
Q 1259 2794 1537 2939 
Q 1816 3084 2150 3084 
Q 2853 3084 3261 2657 
Q 3669 2231 3669 1497 
Q 3669 778 3244 343 
Q 2819 -91 2113 -91 
Q 1303 -91 875 529 
Q 447 1150 447 2328 
Q 447 3434 972 4092 
Q 1497 4750 2381 4750 
Q 2619 4750 2861 4703 
Q 3103 4656 3366 4563 
z
" transform="scale(0.015625)"/>
       </defs>
       <use xlink:href="#DejaVuSans-19"/>
       <use xlink:href="#DejaVuSans-13" transform="translate(63.625 0)"/>
       <use xlink:href="#DejaVuSans-13" transform="translate(127.25 0)"/>
       <use xlink:href="#DejaVuSans-13" transform="translate(190.875 0)"/>
      </g>
     </g>
    </g>
    <g id="ytick_5">
     <g id="line2d_34">
      <path d="M 64.522344 114.717369 
L 514.142727 114.717369 
" clip-path="url(#pe50ed3600d)" style="fill: none; stroke: #e4e3df; stroke-width: 0.8; stroke-linecap: square"/>
     </g>
     <g id="line2d_35">
      <g>
       <use xlink:href="#m5ecc896e8d" x="64.522344" y="114.717369" style="fill: #52514e; stroke: #52514e; stroke-width: 0.8"/>
      </g>
     </g>
     <g id="text_10">
      <!-- 8000 -->
      <g style="fill: #52514e" transform="translate(32.072344 118.516197) scale(0.1 -0.1)">
       <use xlink:href="#DejaVuSans-1b"/>
       <use xlink:href="#DejaVuSans-13" transform="translate(63.625 0)"/>
       <use xlink:href="#DejaVuSans-13" transform="translate(127.25 0)"/>
       <use xlink:href="#DejaVuSans-13" transform="translate(190.875 0)"/>
      </g>
     </g>
    </g>
    <g id="ytick_6">
     <g id="line2d_36">
      <path d="M 64.522344 78.327297 
L 514.142727 78.327297 
" clip-path="url(#pe50ed3600d)" style="fill: none; stroke: #e4e3df; stroke-width: 0.8; stroke-linecap: square"/>
     </g>
     <g id="line2d_37">
      <g>
       <use xlink:href="#m5ecc896e8d" x="64.522344" y="78.327297" style="fill: #52514e; stroke: #52514e; stroke-width: 0.8"/>
      </g>
     </g>
     <g id="text_11">
      <!-- 10000 -->
      <g style="fill: #52514e" transform="translate(25.709844 82.126125) scale(0.1 -0.1)">
       <use xlink:href="#DejaVuSans-14"/>
       <use xlink:href="#DejaVuSans-13" transform="translate(63.625 0)"/>
       <use xlink:href="#DejaVuSans-13" transform="translate(127.25 0)"/>
       <use xlink:href="#DejaVuSans-13" transform="translate(190.875 0)"/>
       <use xlink:href="#DejaVuSans-13" transform="translate(254.5 0)"/>
      </g>
     </g>
    </g>
    <g id="ytick_7">
     <g id="line2d_38">
      <path d="M 64.522344 41.937225 
L 514.142727 41.937225 
" clip-path="url(#pe50ed3600d)" style="fill: none; stroke: #e4e3df; stroke-width: 0.8; stroke-linecap: square"/>
     </g>
     <g id="line2d_39">
      <g>
       <use xlink:href="#m5ecc896e8d" x="64.522344" y="41.937225" style="fill: #52514e; stroke: #52514e; stroke-width: 0.8"/>
      </g>
     </g>
     <g id="text_12">
      <!-- 12000 -->
      <g style="fill: #52514e" transform="translate(25.709844 45.736054) scale(0.1 -0.1)">
       <use xlink:href="#DejaVuSans-14"/>
       <use xlink:href="#DejaVuSans-15" transform="translate(63.625 0)"/>
       <use xlink:href="#DejaVuSans-13" transform="translate(127.25 0)"/>
       <use xlink:href="#DejaVuSans-13" transform="translate(190.875 0)"/>
       <use xlink:href="#DejaVuSans-13" transform="translate(254.5 0)"/>
      </g>
     </g>
    </g>
    <g id="text_13">
     <!-- requests / second -->
     <g style="fill: #52514e" transform="translate(19.3075 187.525078) rotate(-90) scale(0.1 -0.1)">
      <defs>
       <path id="DejaVuSans-54" d="M 947 1747 
Q 947 1113 1208 752 
Q 1469 391 1925 391 
Q 2381 391 2643 752 
Q 2906 1113 2906 1747 
Q 2906 2381 2643 2742 
Q 2381 3103 1925 3103 
Q 1469 3103 1208 2742 
Q 947 2381 947 1747 
z
M 2906 525 
Q 2725 213 2448 61 
Q 2172 -91 1784 -91 
Q 1150 -91 751 415 
Q 353 922 353 1747 
Q 353 2572 751 3078 
Q 1150 3584 1784 3584 
Q 2172 3584 2448 3432 
Q 2725 3281 2906 2969 
L 2906 3500 
L 3481 3500 
L 3481 -1331 
L 2906 -1331 
L 2906 525 
z
" transform="scale(0.015625)"/>
       <path id="DejaVuSans-12" d="M 1625 4666 
L 2156 4666 
L 531 -594 
L 0 -594 
L 1625 4666 
z
" transform="scale(0.015625)"/>
       <path id="DejaVuSans-47" d="M 2906 2969 
L 2906 4863 
L 3481 4863 
L 3481 0 
L 2906 0 
L 2906 525 
Q 2725 213 2448 61 
Q 2172 -91 1784 -91 
Q 1150 -91 751 415 
Q 353 922 353 1747 
Q 353 2572 751 3078 
Q 1150 3584 1784 3584 
Q 2172 3584 2448 3432 
Q 2725 3281 2906 2969 
z
M 947 1747 
Q 947 1113 1208 752 
Q 1469 391 1925 391 
Q 2381 391 2643 752 
Q 2906 1113 2906 1747 
Q 2906 2381 2643 2742 
Q 2381 3103 1925 3103 
Q 1469 3103 1208 2742 
Q 947 2381 947 1747 
z
" transform="scale(0.015625)"/>
      </defs>
      <use xlink:href="#DejaVuSans-55"/>
      <use xlink:href="#DejaVuSans-48" transform="translate(38.90625 0)"/>
      <use xlink:href="#DejaVuSans-54" transform="translate(100.4375 0)"/>
      <use xlink:href="#DejaVuSans-58" transform="translate(163.921875 0)"/>
      <use xlink:href="#DejaVuSans-48" transform="translate(227.296875 0)"/>
      <use xlink:href="#DejaVuSans-56" transform="translate(288.828125 0)"/>
      <use xlink:href="#DejaVuSans-57" transform="translate(340.921875 0)"/>
      <use xlink:href="#DejaVuSans-56" transform="translate(380.125 0)"/>
      <use xlink:href="#DejaVuSans-3" transform="translate(432.21875 0)"/>
      <use xlink:href="#DejaVuSans-12" transform="translate(464 0)"/>
      <use xlink:href="#DejaVuSans-3" transform="translate(497.6875 0)"/>
      <use xlink:href="#DejaVuSans-56" transform="translate(529.46875 0)"/>
      <use xlink:href="#DejaVuSans-48" transform="translate(581.5625 0)"/>
      <use xlink:href="#DejaVuSans-46" transform="translate(643.09375 0)"/>
      <use xlink:href="#DejaVuSans-52" transform="translate(698.078125 0)"/>
      <use xlink:href="#DejaVuSans-51" transform="translate(759.265625 0)"/>
      <use xlink:href="#DejaVuSans-47" transform="translate(822.640625 0)"/>
     </g>
    </g>
   </g>
   <g id="patch_3">
    <path d="M 64.522344 260.277656 
L 64.522344 26.16 
" style="fill: none; stroke: #e4e3df; stroke-width: 0.8; stroke-linejoin: miter; stroke-linecap: square"/>
   </g>
   <g id="patch_4">
    <path d="M 64.522344 260.277656 
L 514.142727 260.277656 
" style="fill: none; stroke: #e4e3df; stroke-width: 0.8; stroke-linejoin: miter; stroke-linecap: square"/>
   </g>
   <g id="line2d_40">
    <path d="M 84.959634 257.87072 
L 260.136407 241.973127 
L 376.920922 201.395711 
L 493.705437 135.768366 
" clip-path="url(#pe50ed3600d)" style="fill: none; stroke: #2a78d6; stroke-width: 2; stroke-linecap: square"/>
    <defs>
     <path id="md21d04e811" d="M 0 2.5 
C 0.663008 2.5 1.29895 2.236584 1.767767 1.767767 
C 2.236584 1.29895 2.5 0.663008 2.5 0 
C 2.5 -0.663008 2.236584 -1.29895 1.767767 -1.767767 
C 1.29895 -2.236584 0.663008 -2.5 0 -2.5 
C -0.663008 -2.5 -1.29895 -2.236584 -1.767767 -1.767767 
C -2.236584 -1.29895 -2.5 -0.663008 -2.5 0 
C -2.5 0.663008 -2.236584 1.29895 -1.767767 1.767767 
C -1.29895 2.236584 -0.663008 2.5 0 2.5 
z
" style="stroke: #2a78d6"/>
    </defs>
    <g clip-path="url(#pe50ed3600d)">
     <use xlink:href="#md21d04e811" x="84.959634" y="257.87072" style="fill: #2a78d6; stroke: #2a78d6"/>
     <use xlink:href="#md21d04e811" x="260.136407" y="241.973127" style="fill: #2a78d6; stroke: #2a78d6"/>
     <use xlink:href="#md21d04e811" x="376.920922" y="201.395711" style="fill: #2a78d6; stroke: #2a78d6"/>
     <use xlink:href="#md21d04e811" x="493.705437" y="135.768366" style="fill: #2a78d6; stroke: #2a78d6"/>
    </g>
   </g>
   <g id="text_14">
    <!-- 6,843 -->
    <g style="fill: #0b0b0b" transform="translate(499.705437 137.846491) scale(0.08 -0.08)">
     <defs>
      <path id="DejaVuSans-f" d="M 750 794 
L 1409 794 
L 1409 256 
L 897 -744 
L 494 -744 
L 750 256 
L 750 794 
z
" transform="scale(0.015625)"/>
     </defs>
     <use xlink:href="#DejaVuSans-19"/>
     <use xlink:href="#DejaVuSans-f" transform="translate(63.625 0)"/>
     <use xlink:href="#DejaVuSans-1b" transform="translate(95.40625 0)"/>
     <use xlink:href="#DejaVuSans-17" transform="translate(159.03125 0)"/>
     <use xlink:href="#DejaVuSans-16" transform="translate(222.65625 0)"/>
    </g>
   </g>
   <g id="line2d_41">
    <path d="M 84.959634 187.549252 
L 260.136407 65.164005 
L 376.920922 59.299458 
L 493.705437 59.34027 
" clip-path="url(#pe50ed3600d)" style="fill: none; stroke: #eb6834; stroke-width: 2; stroke-linecap: square"/>
    <defs>
     <path id="m3c6e3c3e0c" d="M 0 2.5 
C 0.663008 2.5 1.29895 2.236584 1.767767 1.767767 
C 2.236584 1.29895 2.5 0.663008 2.5 0 
C 2.5 -0.663008 2.236584 -1.29895 1.767767 -1.767767 
C 1.29895 -2.236584 0.663008 -2.5 0 -2.5 
C -0.663008 -2.5 -1.29895 -2.236584 -1.767767 -1.767767 
C -2.236584 -1.29895 -2.5 -0.663008 -2.5 0 
C -2.5 0.663008 -2.236584 1.29895 -1.767767 1.767767 
C -1.29895 2.236584 -0.663008 2.5 0 2.5 
z
" style="stroke: #eb6834"/>
    </defs>
    <g clip-path="url(#pe50ed3600d)">
     <use xlink:href="#m3c6e3c3e0c" x="84.959634" y="187.549252" style="fill: #eb6834; stroke: #eb6834"/>
     <use xlink:href="#m3c6e3c3e0c" x="260.136407" y="65.164005" style="fill: #eb6834; stroke: #eb6834"/>
     <use xlink:href="#m3c6e3c3e0c" x="376.920922" y="59.299458" style="fill: #eb6834; stroke: #eb6834"/>
     <use xlink:href="#m3c6e3c3e0c" x="493.705437" y="59.34027" style="fill: #eb6834; stroke: #eb6834"/>
    </g>
   </g>
   <g id="text_15">
    <!-- 11,044 -->
    <g style="fill: #0b0b0b" transform="translate(499.705437 61.418395) scale(0.08 -0.08)">
     <use xlink:href="#DejaVuSans-14"/>
     <use xlink:href="#DejaVuSans-14" transform="translate(63.625 0)"/>
     <use xlink:href="#DejaVuSans-f" transform="translate(127.25 0)"/>
     <use xlink:href="#DejaVuSans-13" transform="translate(159.03125 0)"/>
     <use xlink:href="#DejaVuSans-17" transform="translate(222.65625 0)"/>
     <use xlink:href="#DejaVuSans-17" transform="translate(286.28125 0)"/>
    </g>
   </g>
   <g id="line2d_42">
    <path d="M 84.959634 259.216182 
L 260.136407 251.882724 
L 376.920922 227.888759 
L 493.705437 159.694966 
" clip-path="url(#pe50ed3600d)" style="fill: none; stroke: #1baf7a; stroke-width: 2; stroke-linecap: square"/>
    <defs>
     <path id="mce5e67f2d7" d="M 0 2.5 
C 0.663008 2.5 1.29895 2.236584 1.767767 1.767767 
C 2.236584 1.29895 2.5 0.663008 2.5 0 
C 2.5 -0.663008 2.236584 -1.29895 1.767767 -1.767767 
C 1.29895 -2.236584 0.663008 -2.5 0 -2.5 
C -0.663008 -2.5 -1.29895 -2.236584 -1.767767 -1.767767 
C -2.236584 -1.29895 -2.5 -0.663008 -2.5 0 
C -2.5 0.663008 -2.236584 1.29895 -1.767767 1.767767 
C -1.29895 2.236584 -0.663008 2.5 0 2.5 
z
" style="stroke: #1baf7a"/>
    </defs>
    <g clip-path="url(#pe50ed3600d)">
     <use xlink:href="#mce5e67f2d7" x="84.959634" y="259.216182" style="fill: #1baf7a; stroke: #1baf7a"/>
     <use xlink:href="#mce5e67f2d7" x="260.136407" y="251.882724" style="fill: #1baf7a; stroke: #1baf7a"/>
     <use xlink:href="#mce5e67f2d7" x="376.920922" y="227.888759" style="fill: #1baf7a; stroke: #1baf7a"/>
     <use xlink:href="#mce5e67f2d7" x="493.705437" y="159.694966" style="fill: #1baf7a; stroke: #1baf7a"/>
    </g>
   </g>
   <g id="text_16">
    <!-- 5,528 -->
    <g style="fill: #0b0b0b" transform="translate(499.705437 161.773091) scale(0.08 -0.08)">
     <defs>
      <path id="DejaVuSans-18" d="M 691 4666 
L 3169 4666 
L 3169 4134 
L 1269 4134 
L 1269 2991 
Q 1406 3038 1543 3061 
Q 1681 3084 1819 3084 
Q 2600 3084 3056 2656 
Q 3513 2228 3513 1497 
Q 3513 744 3044 326 
Q 2575 -91 1722 -91 
Q 1428 -91 1123 -41 
Q 819 9 494 109 
L 494 744 
Q 775 591 1075 516 
Q 1375 441 1709 441 
Q 2250 441 2565 725 
Q 2881 1009 2881 1497 
Q 2881 1984 2565 2268 
Q 2250 2553 1709 2553 
Q 1456 2553 1204 2497 
Q 953 2441 691 2322 
L 691 4666 
z
" transform="scale(0.015625)"/>
     </defs>
     <use xlink:href="#DejaVuSans-18"/>
     <use xlink:href="#DejaVuSans-f" transform="translate(63.625 0)"/>
     <use xlink:href="#DejaVuSans-18" transform="translate(95.40625 0)"/>
     <use xlink:href="#DejaVuSans-15" transform="translate(159.03125 0)"/>
     <use xlink:href="#DejaVuSans-1b" transform="translate(222.65625 0)"/>
    </g>
   </g>
   <g id="line2d_43">
    <path d="M 84.959634 179.826234 
L 260.136407 44.523143 
L 376.920922 37.257913 
L 493.705437 40.723982 
" clip-path="url(#pe50ed3600d)" style="fill: none; stroke: #eda100; stroke-width: 2; stroke-linecap: square"/>
    <defs>
     <path id="m89539be1bf" d="M 0 2.5 
C 0.663008 2.5 1.29895 2.236584 1.767767 1.767767 
C 2.236584 1.29895 2.5 0.663008 2.5 0 
C 2.5 -0.663008 2.236584 -1.29895 1.767767 -1.767767 
C 1.29895 -2.236584 0.663008 -2.5 0 -2.5 
C -0.663008 -2.5 -1.29895 -2.236584 -1.767767 -1.767767 
C -2.236584 -1.29895 -2.5 -0.663008 -2.5 0 
C -2.5 0.663008 -2.236584 1.29895 -1.767767 1.767767 
C -1.29895 2.236584 -0.663008 2.5 0 2.5 
z
" style="stroke: #eda100"/>
    </defs>
    <g clip-path="url(#pe50ed3600d)">
     <use xlink:href="#m89539be1bf" x="84.959634" y="179.826234" style="fill: #eda100; stroke: #eda100"/>
     <use xlink:href="#m89539be1bf" x="260.136407" y="44.523143" style="fill: #eda100; stroke: #eda100"/>
     <use xlink:href="#m89539be1bf" x="376.920922" y="37.257913" style="fill: #eda100; stroke: #eda100"/>
     <use xlink:href="#m89539be1bf" x="493.705437" y="40.723982" style="fill: #eda100; stroke: #eda100"/>
    </g>
   </g>
   <g id="text_17">
    <!-- 12,067 -->
    <g style="fill: #0b0b0b" transform="translate(499.705437 42.802107) scale(0.08 -0.08)">
     <defs>
      <path id="DejaVuSans-1a" d="M 525 4666 
L 3525 4666 
L 3525 4397 
L 1831 0 
L 1172 0 
L 2766 4134 
L 525 4134 
L 525 4666 
z
" transform="scale(0.015625)"/>
     </defs>
     <use xlink:href="#DejaVuSans-14"/>
     <use xlink:href="#DejaVuSans-15" transform="translate(63.625 0)"/>
     <use xlink:href="#DejaVuSans-f" transform="translate(127.25 0)"/>
     <use xlink:href="#DejaVuSans-13" transform="translate(159.03125 0)"/>
     <use xlink:href="#DejaVuSans-19" transform="translate(222.65625 0)"/>
     <use xlink:href="#DejaVuSans-1a" transform="translate(286.28125 0)"/>
    </g>
   </g>
   <g id="text_18">
    <!-- GetBlock requests per second by concurrent clients -->
    <g style="fill: #0b0b0b" transform="translate(64.522344 20.16) scale(0.12 -0.12)">
     <defs>
      <path id="DejaVuSans-Bold-2a" d="M 4781 347 
Q 4331 128 3847 18 
Q 3363 -91 2847 -91 
Q 1681 -91 1000 561 
Q 319 1213 319 2328 
Q 319 3456 1012 4103 
Q 1706 4750 2913 4750 
Q 3378 4750 3804 4662 
Q 4231 4575 4609 4403 
L 4609 3438 
Q 4219 3659 3833 3768 
Q 3447 3878 3059 3878 
Q 2341 3878 1952 3476 
Q 1563 3075 1563 2328 
Q 1563 1588 1938 1184 
Q 2313 781 3003 781 
Q 3191 781 3352 804 
Q 3513 828 3641 878 
L 3641 1784 
L 2906 1784 
L 2906 2591 
L 4781 2591 
L 4781 347 
z
" transform="scale(0.015625)"/>
      <path id="DejaVuSans-Bold-48" d="M 4031 1759 
L 4031 1441 
L 1416 1441 
Q 1456 1047 1700 850 
Q 1944 653 2381 653 
Q 2734 653 3104 758 
Q 3475 863 3866 1075 
L 3866 213 
Q 3469 63 3072 -14 
Q 2675 -91 2278 -91 
Q 1328 -91 801 392 
Q 275 875 275 1747 
Q 275 2603 792 3093 
Q 1309 3584 2216 3584 
Q 3041 3584 3536 3087 
Q 4031 2591 4031 1759 
z
M 2881 2131 
Q 2881 2450 2695 2645 
Q 2509 2841 2209 2841 
Q 1884 2841 1681 2658 
Q 1478 2475 1428 2131 
L 2881 2131 
z
" transform="scale(0.015625)"/>
      <path id="DejaVuSans-Bold-57" d="M 1759 4494 
L 1759 3500 
L 2913 3500 
L 2913 2700 
L 1759 2700 
L 1759 1216 
Q 1759 972 1856 886 
Q 1953 800 2241 800 
L 2816 800 
L 2816 0 
L 1856 0 
Q 1194 0 917 276 
Q 641 553 641 1216 
L 641 2700 
L 84 2700 
L 84 3500 
L 641 3500 
L 641 4494 
L 1759 4494 
z
" transform="scale(0.015625)"/>
      <path id="DejaVuSans-Bold-25" d="M 2456 2859 
Q 2741 2859 2887 2984 
Q 3034 3109 3034 3353 
Q 3034 3594 2887 3720 
Q 2741 3847 2456 3847 
L 1791 3847 
L 1791 2859 
L 2456 2859 
z
M 2497 819 
Q 2859 819 3042 972 
Q 3225 1125 3225 1434 
Q 3225 1738 3044 1889 
Q 2863 2041 2497 2041 
L 1791 2041 
L 1791 819 
L 2497 819 
z
M 3616 2497 
Q 4003 2384 4215 2081 
Q 4428 1778 4428 1338 
Q 4428 663 3972 331 
Q 3516 0 2584 0 
L 588 0 
L 588 4666 
L 2394 4666 
Q 3366 4666 3802 4372 
Q 4238 4078 4238 3431 
Q 4238 3091 4078 2852 
Q 3919 2613 3616 2497 
z
" transform="scale(0.015625)"/>
      <path id="DejaVuSans-Bold-4f" d="M 538 4863 
L 1656 4863 
L 1656 0 
L 538 0 
L 538 4863 
z
" transform="scale(0.015625)"/>
      <path id="DejaVuSans-Bold-52" d="M 2203 2784 
Q 1831 2784 1636 2517 
Q 1441 2250 1441 1747 
Q 1441 1244 1636 976 
Q 1831 709 2203 709 
Q 2569 709 2762 976 
Q 2956 1244 2956 1747 
Q 2956 2250 2762 2517 
Q 2569 2784 2203 2784 
z
M 2203 3584 
Q 3106 3584 3614 3096 
Q 4122 2609 4122 1747 
Q 4122 884 3614 396 
Q 3106 -91 2203 -91 
Q 1297 -91 786 396 
Q 275 884 275 1747 
Q 275 2609 786 3096 
Q 1297 3584 2203 3584 
z
" transform="scale(0.015625)"/>
      <path id="DejaVuSans-Bold-46" d="M 3366 3391 
L 3366 2478 
Q 3138 2634 2908 2709 
Q 2678 2784 2431 2784 
Q 1963 2784 1702 2511 
Q 1441 2238 1441 1747 
Q 1441 1256 1702 982 
Q 1963 709 2431 709 
Q 2694 709 2930 787 
Q 3166 866 3366 1019 
L 3366 103 
Q 3103 6 2833 -42 
Q 2563 -91 2291 -91 
Q 1344 -91 809 395 
Q 275 881 275 1747 
Q 275 2613 809 3098 
Q 1344 3584 2291 3584 
Q 2566 3584 2833 3536 
Q 3100 3488 3366 3391 
z
" transform="scale(0.015625)"/>
      <path id="DejaVuSans-Bold-4e" d="M 538 4863 
L 1656 4863 
L 1656 2216 
L 2944 3500 
L 4244 3500 
L 2534 1894 
L 4378 0 
L 3022 0 
L 1656 1459 
L 1656 0 
L 538 0 
L 538 4863 
z
" transform="scale(0.015625)"/>
      <path id="DejaVuSans-Bold-3" transform="scale(0.015625)"/>
      <path id="DejaVuSans-Bold-55" d="M 3138 2547 
Q 2991 2616 2845 2648 
Q 2700 2681 2553 2681 
Q 2122 2681 1889 2404 
Q 1656 2128 1656 1613 
L 1656 0 
L 538 0 
L 538 3500 
L 1656 3500 
L 1656 2925 
Q 1872 3269 2151 3426 
Q 2431 3584 2822 3584 
Q 2878 3584 2943 3579 
Q 3009 3575 3134 3559 
L 3138 2547 
z
" transform="scale(0.015625)"/>
      <path id="DejaVuSans-Bold-54" d="M 2181 2772 
Q 1825 2772 1636 2509 
Q 1447 2247 1447 1747 
Q 1447 1247 1636 984 
Q 1825 722 2181 722 
Q 2541 722 2730 984 
Q 2919 1247 2919 1747 
Q 2919 2247 2730 2509 
Q 2541 2772 2181 2772 
z
M 2919 506 
Q 2688 197 2409 53 
Q 2131 -91 1766 -91 
Q 1119 -91 703 423 
Q 288 938 288 1747 
Q 288 2556 703 3067 
Q 1119 3578 1766 3578 
Q 2131 3578 2409 3434 
Q 2688 3291 2919 2981 
L 2919 3500 
L 4044 3500 
L 4044 -1331 
L 2919 -1331 
L 2919 506 
z
" transform="scale(0.015625)"/>
      <path id="DejaVuSans-Bold-58" d="M 500 1363 
L 500 3500 
L 1625 3500 
L 1625 3150 
Q 1625 2866 1622 2436 
Q 1619 2006 1619 1863 
Q 1619 1441 1641 1255 
Q 1663 1069 1716 984 
Q 1784 875 1895 815 
Q 2006 756 2150 756 
Q 2500 756 2700 1025 
Q 2900 1294 2900 1772 
L 2900 3500 
L 4019 3500 
L 4019 0 
L 2900 0 
L 2900 506 
Q 2647 200 2364 54 
Q 2081 -91 1741 -91 
Q 1134 -91 817 281 
Q 500 653 500 1363 
z
" transform="scale(0.015625)"/>
      <path id="DejaVuSans-Bold-56" d="M 3272 3391 
L 3272 2541 
Q 2913 2691 2578 2766 
Q 2244 2841 1947 2841 
Q 1628 2841 1473 2761 
Q 1319 2681 1319 2516 
Q 1319 2381 1436 2309 
Q 1553 2238 1856 2203 
L 2053 2175 
Q 2913 2066 3209 1816 
Q 3506 1566 3506 1031 
Q 3506 472 3093 190 
Q 2681 -91 1863 -91 
Q 1516 -91 1145 -36 
Q 775 19 384 128 
L 384 978 
Q 719 816 1070 734 
Q 1422 653 1784 653 
Q 2113 653 2278 743 
Q 2444 834 2444 1013 
Q 2444 1163 2330 1236 
Q 2216 1309 1875 1350 
L 1678 1375 
Q 931 1469 631 1722 
Q 331 1975 331 2491 
Q 331 3047 712 3315 
Q 1094 3584 1881 3584 
Q 2191 3584 2531 3537 
Q 2872 3491 3272 3391 
z
" transform="scale(0.015625)"/>
      <path id="DejaVuSans-Bold-53" d="M 1656 506 
L 1656 -1331 
L 538 -1331 
L 538 3500 
L 1656 3500 
L 1656 2988 
Q 1888 3294 2169 3439 
Q 2450 3584 2816 3584 
Q 3463 3584 3878 3070 
Q 4294 2556 4294 1747 
Q 4294 938 3878 423 
Q 3463 -91 2816 -91 
Q 2450 -91 2169 54 
Q 1888 200 1656 506 
z
M 2400 2772 
Q 2041 2772 1848 2508 
Q 1656 2244 1656 1747 
Q 1656 1250 1848 986 
Q 2041 722 2400 722 
Q 2759 722 2948 984 
Q 3138 1247 3138 1747 
Q 3138 2247 2948 2509 
Q 2759 2772 2400 2772 
z
" transform="scale(0.015625)"/>
      <path id="DejaVuSans-Bold-51" d="M 4056 2131 
L 4056 0 
L 2931 0 
L 2931 347 
L 2931 1631 
Q 2931 2084 2911 2256 
Q 2891 2428 2841 2509 
Q 2775 2619 2662 2680 
Q 2550 2741 2406 2741 
Q 2056 2741 1856 2470 
Q 1656 2200 1656 1722 
L 1656 0 
L 538 0 
L 538 3500 
L 1656 3500 
L 1656 2988 
Q 1909 3294 2193 3439 
Q 2478 3584 2822 3584 
Q 3428 3584 3742 3212 
Q 4056 2841 4056 2131 
z
" transform="scale(0.015625)"/>
      <path id="DejaVuSans-Bold-47" d="M 2919 2988 
L 2919 4863 
L 4044 4863 
L 4044 0 
L 2919 0 
L 2919 506 
Q 2688 197 2409 53 
Q 2131 -91 1766 -91 
Q 1119 -91 703 423 
Q 288 938 288 1747 
Q 288 2556 703 3070 
Q 1119 3584 1766 3584 
Q 2128 3584 2408 3439 
Q 2688 3294 2919 2988 
z
M 2181 722 
Q 2541 722 2730 984 
Q 2919 1247 2919 1747 
Q 2919 2247 2730 2509 
Q 2541 2772 2181 2772 
Q 1825 2772 1636 2509 
Q 1447 2247 1447 1747 
Q 1447 1247 1636 984 
Q 1825 722 2181 722 
z
" transform="scale(0.015625)"/>
      <path id="DejaVuSans-Bold-45" d="M 2400 722 
Q 2759 722 2948 984 
Q 3138 1247 3138 1747 
Q 3138 2247 2948 2509 
Q 2759 2772 2400 2772 
Q 2041 2772 1848 2508 
Q 1656 2244 1656 1747 
Q 1656 1250 1848 986 
Q 2041 722 2400 722 
z
M 1656 2988 
Q 1888 3294 2169 3439 
Q 2450 3584 2816 3584 
Q 3463 3584 3878 3070 
Q 4294 2556 4294 1747 
Q 4294 938 3878 423 
Q 3463 -91 2816 -91 
Q 2450 -91 2169 54 
Q 1888 200 1656 506 
L 1656 0 
L 538 0 
L 538 4863 
L 1656 4863 
L 1656 2988 
z
" transform="scale(0.015625)"/>
      <path id="DejaVuSans-Bold-5c" d="M 78 3500 
L 1197 3500 
L 2138 1125 
L 2938 3500 
L 4056 3500 
L 2584 -331 
Q 2363 -916 2067 -1148 
Q 1772 -1381 1288 -1381 
L 641 -1381 
L 641 -647 
L 991 -647 
Q 1275 -647 1404 -556 
Q 1534 -466 1606 -231 
L 1638 -134 
L 78 3500 
z
" transform="scale(0.015625)"/>
      <path id="DejaVuSans-Bold-4c" d="M 538 3500 
L 1656 3500 
L 1656 0 
L 538 0 
L 538 3500 
z
M 538 4863 
L 1656 4863 
L 1656 3950 
L 538 3950 
L 538 4863 
z
" transform="scale(0.015625)"/>
     </defs>
     <use xlink:href="#DejaVuSans-Bold-2a"/>
     <use xlink:href="#DejaVuSans-Bold-48" transform="translate(82.078125 0)"/>
     <use xlink:href="#DejaVuSans-Bold-57" transform="translate(149.90625 0)"/>
     <use xlink:href="#DejaVuSans-Bold-25" transform="translate(197.703125 0)"/>
     <use xlink:href="#DejaVuSans-Bold-4f" transform="translate(273.921875 0)"/>
     <use xlink:href="#DejaVuSans-Bold-52" transform="translate(308.203125 0)"/>
     <use xlink:href="#DejaVuSans-Bold-46" transform="translate(376.90625 0)"/>
     <use xlink:href="#DejaVuSans-Bold-4e" transform="translate(436.1875 0)"/>
     <use xlink:href="#DejaVuSans-Bold-3" transform="translate(502.6875 0)"/>
     <use xlink:href="#DejaVuSans-Bold-55" transform="translate(537.5 0)"/>
     <use xlink:href="#DejaVuSans-Bold-48" transform="translate(586.8125 0)"/>
     <use xlink:href="#DejaVuSans-Bold-54" transform="translate(654.640625 0)"/>
     <use xlink:href="#DejaVuSans-Bold-58" transform="translate(726.21875 0)"/>
     <use xlink:href="#DejaVuSans-Bold-48" transform="translate(797.40625 0)"/>
     <use xlink:href="#DejaVuSans-Bold-56" transform="translate(865.234375 0)"/>
     <use xlink:href="#DejaVuSans-Bold-57" transform="translate(924.75 0)"/>
     <use xlink:href="#DejaVuSans-Bold-56" transform="translate(972.546875 0)"/>
     <use xlink:href="#DejaVuSans-Bold-3" transform="translate(1032.0625 0)"/>
     <use xlink:href="#DejaVuSans-Bold-53" transform="translate(1066.875 0)"/>
     <use xlink:href="#DejaVuSans-Bold-48" transform="translate(1138.453125 0)"/>
     <use xlink:href="#DejaVuSans-Bold-55" transform="translate(1206.28125 0)"/>
     <use xlink:href="#DejaVuSans-Bold-3" transform="translate(1255.59375 0)"/>
     <use xlink:href="#DejaVuSans-Bold-56" transform="translate(1290.40625 0)"/>
     <use xlink:href="#DejaVuSans-Bold-48" transform="translate(1349.921875 0)"/>
     <use xlink:href="#DejaVuSans-Bold-46" transform="translate(1417.75 0)"/>
     <use xlink:href="#DejaVuSans-Bold-52" transform="translate(1477.03125 0)"/>
     <use xlink:href="#DejaVuSans-Bold-51" transform="translate(1545.734375 0)"/>
     <use xlink:href="#DejaVuSans-Bold-47" transform="translate(1616.921875 0)"/>
     <use xlink:href="#DejaVuSans-Bold-3" transform="translate(1688.5 0)"/>
     <use xlink:href="#DejaVuSans-Bold-45" transform="translate(1723.3125 0)"/>
     <use xlink:href="#DejaVuSans-Bold-5c" transform="translate(1794.890625 0)"/>
     <use xlink:href="#DejaVuSans-Bold-3" transform="translate(1860.078125 0)"/>
     <use xlink:href="#DejaVuSans-Bold-46" transform="translate(1894.890625 0)"/>
     <use xlink:href="#DejaVuSans-Bold-52" transform="translate(1954.171875 0)"/>
     <use xlink:href="#DejaVuSans-Bold-51" transform="translate(2022.875 0)"/>
     <use xlink:href="#DejaVuSans-Bold-46" transform="translate(2094.0625 0)"/>
     <use xlink:href="#DejaVuSans-Bold-58" transform="translate(2153.34375 0)"/>
     <use xlink:href="#DejaVuSans-Bold-55" transform="translate(2224.53125 0)"/>
     <use xlink:href="#DejaVuSans-Bold-55" transform="translate(2273.84375 0)"/>
     <use xlink:href="#DejaVuSans-Bold-48" transform="translate(2323.15625 0)"/>
     <use xlink:href="#DejaVuSans-Bold-51" transform="translate(2390.984375 0)"/>
     <use xlink:href="#DejaVuSans-Bold-57" transform="translate(2462.171875 0)"/>
     <use xlink:href="#DejaVuSans-Bold-3" transform="translate(2509.96875 0)"/>
     <use xlink:href="#DejaVuSans-Bold-46" transform="translate(2544.78125 0)"/>
     <use xlink:href="#DejaVuSans-Bold-4f" transform="translate(2604.0625 0)"/>
     <use xlink:href="#DejaVuSans-Bold-4c" transform="translate(2638.34375 0)"/>
     <use xlink:href="#DejaVuSans-Bold-48" transform="translate(2672.625 0)"/>
     <use xlink:href="#DejaVuSans-Bold-51" transform="translate(2740.453125 0)"/>
     <use xlink:href="#DejaVuSans-Bold-57" transform="translate(2811.640625 0)"/>
     <use xlink:href="#DejaVuSans-Bold-56" transform="translate(2859.4375 0)"/>
    </g>
   </g>
   <g id="legend_1">
    <g id="line2d_44">
     <path d="M 71.722344 36.63875 
L 79.722344 36.63875 
L 87.722344 36.63875 
" style="fill: none; stroke: #2a78d6; stroke-width: 2; stroke-linecap: square"/>
     <g>
      <use xlink:href="#md21d04e811" x="79.722344" y="36.63875" style="fill: #2a78d6; stroke: #2a78d6"/>
     </g>
    </g>
    <g id="text_19">
     <!-- zaino-0.10.1 -->
     <g style="fill: #0b0b0b" transform="translate(94.122344 39.43875) scale(0.08 -0.08)">
      <defs>
       <path id="DejaVuSans-5d" d="M 353 3500 
L 3084 3500 
L 3084 2975 
L 922 459 
L 3084 459 
L 3084 0 
L 275 0 
L 275 525 
L 2438 3041 
L 353 3041 
L 353 3500 
z
" transform="scale(0.015625)"/>
       <path id="DejaVuSans-44" d="M 2194 1759 
Q 1497 1759 1228 1600 
Q 959 1441 959 1056 
Q 959 750 1161 570 
Q 1363 391 1709 391 
Q 2188 391 2477 730 
Q 2766 1069 2766 1631 
L 2766 1759 
L 2194 1759 
z
M 3341 1997 
L 3341 0 
L 2766 0 
L 2766 531 
Q 2569 213 2275 61 
Q 1981 -91 1556 -91 
Q 1019 -91 701 211 
Q 384 513 384 1019 
Q 384 1609 779 1909 
Q 1175 2209 1959 2209 
L 2766 2209 
L 2766 2266 
Q 2766 2663 2505 2880 
Q 2244 3097 1772 3097 
Q 1472 3097 1187 3025 
Q 903 2953 641 2809 
L 641 3341 
Q 956 3463 1253 3523 
Q 1550 3584 1831 3584 
Q 2591 3584 2966 3190 
Q 3341 2797 3341 1997 
z
" transform="scale(0.015625)"/>
       <path id="DejaVuSans-10" d="M 313 2009 
L 1997 2009 
L 1997 1497 
L 313 1497 
L 313 2009 
z
" transform="scale(0.015625)"/>
       <path id="DejaVuSans-11" d="M 684 794 
L 1344 794 
L 1344 0 
L 684 0 
L 684 794 
z
" transform="scale(0.015625)"/>
      </defs>
      <use xlink:href="#DejaVuSans-5d"/>
      <use xlink:href="#DejaVuSans-44" transform="translate(52.484375 0)"/>
      <use xlink:href="#DejaVuSans-4c" transform="translate(113.765625 0)"/>
      <use xlink:href="#DejaVuSans-51" transform="translate(141.546875 0)"/>
      <use xlink:href="#DejaVuSans-52" transform="translate(204.921875 0)"/>
      <use xlink:href="#DejaVuSans-10" transform="translate(267.96875 0)"/>
      <use xlink:href="#DejaVuSans-13" transform="translate(304.046875 0)"/>
      <use xlink:href="#DejaVuSans-11" transform="translate(367.671875 0)"/>
      <use xlink:href="#DejaVuSans-14" transform="translate(399.453125 0)"/>
      <use xlink:href="#DejaVuSans-13" transform="translate(463.078125 0)"/>
      <use xlink:href="#DejaVuSans-11" transform="translate(526.703125 0)"/>
      <use xlink:href="#DejaVuSans-14" transform="translate(558.484375 0)"/>
     </g>
    </g>
    <g id="line2d_45">
     <path d="M 71.722344 48.639375 
L 79.722344 48.639375 
L 87.722344 48.639375 
" style="fill: none; stroke: #eb6834; stroke-width: 2; stroke-linecap: square"/>
     <g>
      <use xlink:href="#m3c6e3c3e0c" x="79.722344" y="48.639375" style="fill: #eb6834; stroke: #eb6834"/>
     </g>
    </g>
    <g id="text_20">
     <!-- ztreamer-v0.1.0 -->
     <g style="fill: #0b0b0b" transform="translate(94.122344 51.439375) scale(0.08 -0.08)">
      <defs>
       <path id="DejaVuSans-50" d="M 3328 2828 
Q 3544 3216 3844 3400 
Q 4144 3584 4550 3584 
Q 5097 3584 5394 3201 
Q 5691 2819 5691 2113 
L 5691 0 
L 5113 0 
L 5113 2094 
Q 5113 2597 4934 2840 
Q 4756 3084 4391 3084 
Q 3944 3084 3684 2787 
Q 3425 2491 3425 1978 
L 3425 0 
L 2847 0 
L 2847 2094 
Q 2847 2600 2669 2842 
Q 2491 3084 2119 3084 
Q 1678 3084 1418 2786 
Q 1159 2488 1159 1978 
L 1159 0 
L 581 0 
L 581 3500 
L 1159 3500 
L 1159 2956 
Q 1356 3278 1631 3431 
Q 1906 3584 2284 3584 
Q 2666 3584 2933 3390 
Q 3200 3197 3328 2828 
z
" transform="scale(0.015625)"/>
       <path id="DejaVuSans-59" d="M 191 3500 
L 800 3500 
L 1894 563 
L 2988 3500 
L 3597 3500 
L 2284 0 
L 1503 0 
L 191 3500 
z
" transform="scale(0.015625)"/>
      </defs>
      <use xlink:href="#DejaVuSans-5d"/>
      <use xlink:href="#DejaVuSans-57" transform="translate(52.484375 0)"/>
      <use xlink:href="#DejaVuSans-55" transform="translate(91.6875 0)"/>
      <use xlink:href="#DejaVuSans-48" transform="translate(130.59375 0)"/>
      <use xlink:href="#DejaVuSans-44" transform="translate(192.125 0)"/>
      <use xlink:href="#DejaVuSans-50" transform="translate(253.40625 0)"/>
      <use xlink:href="#DejaVuSans-48" transform="translate(350.8125 0)"/>
      <use xlink:href="#DejaVuSans-55" transform="translate(412.34375 0)"/>
      <use xlink:href="#DejaVuSans-10" transform="translate(447.0625 0)"/>
      <use xlink:href="#DejaVuSans-59" transform="translate(480.453125 0)"/>
      <use xlink:href="#DejaVuSans-13" transform="translate(539.640625 0)"/>
      <use xlink:href="#DejaVuSans-11" transform="translate(603.265625 0)"/>
      <use xlink:href="#DejaVuSans-14" transform="translate(635.046875 0)"/>
      <use xlink:href="#DejaVuSans-11" transform="translate(698.671875 0)"/>
      <use xlink:href="#DejaVuSans-13" transform="translate(730.453125 0)"/>
     </g>
    </g>
    <g id="line2d_46">
     <path d="M 71.722344 60.64 
L 79.722344 60.64 
L 87.722344 60.64 
" style="fill: none; stroke: #1baf7a; stroke-width: 2; stroke-linecap: square"/>
     <g>
      <use xlink:href="#mce5e67f2d7" x="79.722344" y="60.64" style="fill: #1baf7a; stroke: #1baf7a"/>
     </g>
    </g>
    <g id="text_21">
     <!-- zaino-0.9.0 -->
     <g style="fill: #0b0b0b" transform="translate(94.122344 63.44) scale(0.08 -0.08)">
      <defs>
       <path id="DejaVuSans-1c" d="M 703 97 
L 703 672 
Q 941 559 1184 500 
Q 1428 441 1663 441 
Q 2288 441 2617 861 
Q 2947 1281 2994 2138 
Q 2813 1869 2534 1725 
Q 2256 1581 1919 1581 
Q 1219 1581 811 2004 
Q 403 2428 403 3163 
Q 403 3881 828 4315 
Q 1253 4750 1959 4750 
Q 2769 4750 3195 4129 
Q 3622 3509 3622 2328 
Q 3622 1225 3098 567 
Q 2575 -91 1691 -91 
Q 1453 -91 1209 -44 
Q 966 3 703 97 
z
M 1959 2075 
Q 2384 2075 2632 2365 
Q 2881 2656 2881 3163 
Q 2881 3666 2632 3958 
Q 2384 4250 1959 4250 
Q 1534 4250 1286 3958 
Q 1038 3666 1038 3163 
Q 1038 2656 1286 2365 
Q 1534 2075 1959 2075 
z
" transform="scale(0.015625)"/>
      </defs>
      <use xlink:href="#DejaVuSans-5d"/>
      <use xlink:href="#DejaVuSans-44" transform="translate(52.484375 0)"/>
      <use xlink:href="#DejaVuSans-4c" transform="translate(113.765625 0)"/>
      <use xlink:href="#DejaVuSans-51" transform="translate(141.546875 0)"/>
      <use xlink:href="#DejaVuSans-52" transform="translate(204.921875 0)"/>
      <use xlink:href="#DejaVuSans-10" transform="translate(267.96875 0)"/>
      <use xlink:href="#DejaVuSans-13" transform="translate(304.046875 0)"/>
      <use xlink:href="#DejaVuSans-11" transform="translate(367.671875 0)"/>
      <use xlink:href="#DejaVuSans-1c" transform="translate(399.453125 0)"/>
      <use xlink:href="#DejaVuSans-11" transform="translate(463.078125 0)"/>
      <use xlink:href="#DejaVuSans-13" transform="translate(494.859375 0)"/>
     </g>
    </g>
    <g id="line2d_47">
     <path d="M 71.722344 72.640625 
L 79.722344 72.640625 
L 87.722344 72.640625 
" style="fill: none; stroke: #eda100; stroke-width: 2; stroke-linecap: square"/>
     <g>
      <use xlink:href="#m89539be1bf" x="79.722344" y="72.640625" style="fill: #eda100; stroke: #eda100"/>
     </g>
    </g>
    <g id="text_22">
     <!-- ztreamer-master -->
     <g style="fill: #0b0b0b" transform="translate(94.122344 75.440625) scale(0.08 -0.08)">
      <use xlink:href="#DejaVuSans-5d"/>
      <use xlink:href="#DejaVuSans-57" transform="translate(52.484375 0)"/>
      <use xlink:href="#DejaVuSans-55" transform="translate(91.6875 0)"/>
      <use xlink:href="#DejaVuSans-48" transform="translate(130.59375 0)"/>
      <use xlink:href="#DejaVuSans-44" transform="translate(192.125 0)"/>
      <use xlink:href="#DejaVuSans-50" transform="translate(253.40625 0)"/>
      <use xlink:href="#DejaVuSans-48" transform="translate(350.8125 0)"/>
      <use xlink:href="#DejaVuSans-55" transform="translate(412.34375 0)"/>
      <use xlink:href="#DejaVuSans-10" transform="translate(447.0625 0)"/>
      <use xlink:href="#DejaVuSans-50" transform="translate(483.140625 0)"/>
      <use xlink:href="#DejaVuSans-44" transform="translate(580.546875 0)"/>
      <use xlink:href="#DejaVuSans-56" transform="translate(641.828125 0)"/>
      <use xlink:href="#DejaVuSans-57" transform="translate(693.921875 0)"/>
      <use xlink:href="#DejaVuSans-48" transform="translate(733.125 0)"/>
      <use xlink:href="#DejaVuSans-55" transform="translate(794.65625 0)"/>
     </g>
    </g>
   </g>
  </g>
 </g>
 <defs>
  <clipPath id="pe50ed3600d">
   <rect x="64.522344" y="26.16" width="449.620384" height="234.117656"/>
  </clipPath>
 </defs>
</svg>
